<svg xmlns="http://www.w3.org/2000/svg" width="200" height="176" viewBox="0 0 200 176"><defs><style>.a{fill:#e7fae8;}.a,.b{stroke:#1ac91e;stroke-linejoin:bevel;stroke-width:4px;}.a,.b,.d{stroke-linecap:round;}.b,.d,.e{fill:none;}.c{fill:#1ac91e;}.d{stroke:#e7fae8;stroke-linejoin:round;stroke-width:6px;}</style></defs><g transform="translate(-583 -2054)"><g transform="translate(17.553 219.406)"><path class="a" d="M-17835.521,5201.633c-6.537,2.348-10.951,14.241-8.16,21.912s13.473,8.225,15.494,17.25,17.143,3.127,21.107,3.92,6.793,1.224,10.289,7.307c3.623,6.3,18.736-.164,23.883,4.2s1.242,15.264,3.531,26.027,6.811,11.6,10.207,8.764-2.937-20.256,2.494-22.691,20.58,9.406,25.021-7.184,15.229-16.062,9.352-26.295,2.221-26.212-13.43-28.88c-8.545-.938-14.318-22.919-24.687-19.6s-20.586-7.8-28.287-5.043c-10.959,3.912-27.734-3.334-33.17,6.873S-17828.984,5199.286-17835.521,5201.633Z" transform="translate(18436.48 -3316.051)"/><path class="a" d="M-17673.186,5224.5c-4.674-6.776-6.258-11.27-2.082-14.712s11.467,2.069,17.629-3.5-.705-7.546,7.57-8.046" transform="translate(18326.316 -3327.721)"/><path class="a" d="M-17749.215,5325.2s5.01-5.419,1.846-11.347,7.234-14.51,12.566-7.656,13.168-3.672,19.979,0,12.035,1.548,12.77-7.726" transform="translate(18375.189 -3397.467)"/><path class="a" d="M-17842.727,5236.368s5.357-14.592,12.428-10.184,5.8,6.2,8.781,8.1,7.734-1.918,7.357-6.88.785-8.055,5.887-9.5,6.5,4.563,9.838,3.06,3.555-5.927,2.055-9.114-9.324-5.311-6.844-9.058" transform="translate(18435.924 -3329.788)"/><path class="b" d="M-17572.369,5367.575s1.063-8.939-6.547-6.506-8.264,3.6-10.551,0-5.145-13.275-17.207-9.475" transform="translate(18278.48 -3429.422)"/></g><g transform="matrix(-0.777, -0.629, 0.629, -0.777, 967.158, 2581.56)"><path class="c" d="M34.942,0A34.942,34.942,0,1,1,0,34.942,34.942,34.942,0,0,1,34.942,0Z" transform="translate(429.745 165.457)"/><g transform="translate(454.591 181.824)"><line class="d" x2="7.583" y2="33.967" transform="translate(5.885)"/><path class="d" d="M483.958,214.236l-8.88,13.985-13.985-8.88" transform="translate(-461.093 -191.94)"/></g></g><rect class="e" width="200" height="176" transform="translate(583 2054)"/></g></svg>