<svg xmlns="http://www.w3.org/2000/svg" xmlns:xlink="http://www.w3.org/1999/xlink" width="200" height="176" viewBox="0 0 200 176"><defs><style>.a,.d,.i{fill:none;}.b{fill:#eb4600;}.c{fill:#30bf44;}.d{stroke:#5f954c;stroke-width:2px;}.d,.i,.l{stroke-linecap:round;}.d,.l{stroke-linejoin:round;}.e{fill:#d61d2b;opacity:0.5;mix-blend-mode:multiply;isolation:isolate;}.f{clip-path:url(#a);}.g{fill:#fdffe8;}.h{fill:#241f28;}.i{stroke:#000;stroke-width:3px;}.j{clip-path:url(#b);}.k{fill:#e7fae8;}.l{fill:#1ac91e;stroke:#1ac91e;stroke-width:6px;}</style><clipPath id="a"><path class="a" d="M20.1,4.037a10.077,10.077,0,0,1,2.346,7.252C22.1,17.607,15.853,23.565,9.778,22.64a11.771,11.771,0,0,1-9.1-7.534C-2.049,7.542,3.814-.273,11.3.007A12.116,12.116,0,0,1,20.1,4.037Z"/></clipPath><clipPath id="b"><path class="a" d="M19.4,4.236a10.452,10.452,0,0,1,2.266,7.319,15.122,15.122,0,0,1-3.224,8.164,9.5,9.5,0,0,1-9,3.454A11.557,11.557,0,0,1,.658,15.461C-1.978,7.719,3.683-.28,10.912.008A11.535,11.535,0,0,1,19.4,4.236Z" transform="translate(0 0)"/></clipPath></defs><g transform="translate(-174 -2054)"><g transform="translate(217.852 2089.33) rotate(-25)"><path class="b" d="M32.173.552c-.347.031-8.7-.6-9.045-.55C15.389,1.025,11.464,2.966,6.467,9.338-3.817,22.449-2.325,47.1,14.482,54.939c8.653,4.038,21.266,6.908,30.226,2.532C69.91,45.161,62.538-2.159,32.173.552Z" transform="translate(0 23.557)"/><g transform="translate(1.443 0)"><path class="c" d="M12.73,13.39a14.014,14.014,0,0,0-1.616-4.934A21.2,21.2,0,0,0,4,1.353C3.762,1.2.379-.381.359.086.25,2.721-.117,5.354.037,7.994a14.57,14.57,0,0,0,2.131,6.677A10.4,10.4,0,0,0,9.773,19.8a7.207,7.207,0,0,0,2.1.012c.856-.16.783-.425.883-1.289A20.175,20.175,0,0,0,12.73,13.39Z" transform="translate(31.428 0)"/><path class="d" d="M0,0A44.149,44.149,0,0,1,7.062,11.3a26.437,26.437,0,0,0,4.2,6.876" transform="translate(33.034 1.688)"/><path class="c" d="M41.605,11.738a1.223,1.223,0,0,0,.112-1.4C40.156,7.747,33.821-1.029,20.048.1,7.307,1.142,1.972,5.909.291,7.868A1.2,1.2,0,0,0,.34,9.491c1.565,1.622,5.884,5.347,13.741,6.913C23.946,18.371,36.2,18.492,41.605,11.738Z" transform="translate(0 15.502)"/><path class="d" d="M36.448,7.187S29.132.59,19.36.048,0,3.706,0,3.706" transform="translate(5.157 20.053)"/><path class="d" d="M0,7.008C3.722,5.386,9.82,0,9.82,0" transform="translate(18.469 21.255)"/><path class="d" d="M7.655.092C8.837-.895,11.362,6.184,6.54,15.476,3.363,21.6,1.248,30.783,0,35.336" transform="translate(39.588 0.264)"/><path class="c" d="M4.416,9.762c3.942-2.337,7.93-4.695,12.308-6.049,1.508-.466,3.05-.809,4.591-1.151C25.74,1.579,30.173.593,34.668,0a30.6,30.6,0,0,1-9.3,11.388,16.8,16.8,0,0,1-4.176,2.391,20.422,20.422,0,0,1-3.939.926q-2.856.454-5.739.719a25.149,25.149,0,0,1-6.528-.05c-1.1-.187-4.621-.91-4.965-2.219S3.524,10.292,4.416,9.762Z" transform="translate(43.532 10.72)"/><path class="d" d="M0,7.67c.465-.308,13.674-1.5,19.51-3.964S25.813,0,25.813,0" transform="translate(42.746 16.204)"/></g><ellipse class="e" cx="10.737" cy="10.737" rx="10.737" ry="10.737" transform="translate(0.478 48.456)"/><ellipse class="e" cx="9.804" cy="9.804" rx="9.804" ry="9.804" transform="translate(44.927 50.165)"/><g transform="translate(8.255 38.664)"><g class="f" transform="translate(0 0)"><g transform="translate(-7.889 -2.961)"><path class="g" d="M24.643,26.991a36.151,36.151,0,0,1,13.7,5.972,30.907,30.907,0,0,0,.377-10.78c-1.32-7.742-2.244-10.4-5.686-14.689C27.625.764,21.11-1.495,14.18.968,3.747,4.677-1.152,16.605.229,30.4,7.79,25.986,16.308,25.154,24.643,26.991Z" transform="translate(0 0.211)"/><path class="h" d="M19.3,18.185A19.313,19.313,0,0,0,16.551,4.027C13.721-.271,13.826.844,9.414,0,4.913.917-.12,7.791,0,14.664c.2,11.457,7.571,13.976,12.073,15.122,0,0,1.257-1.276,2.992-3.087A16.844,16.844,0,0,0,19.3,18.185Z" transform="translate(16.18 0)"/></g></g></g><path class="i" d="M3.029,0s-6,4.216-1.114,7.6,5.95-6.587,5.95-6.587" transform="translate(30.628 61.632)"/></g><g class="j" transform="translate(274.256 2108.787) rotate(-25)"><g transform="translate(-8.904 -2.734)"><path class="g" d="M25.224,26.5a37.823,37.823,0,0,1,14.02,5.864,29.131,29.131,0,0,0,.388-10.585c-1.351-7.6-2.3-10.215-5.82-14.422C28.277.75,21.608-1.468,14.515.951,3.835,4.593-1.179,16.305.234,29.849,7.972,25.517,16.693,24.7,25.224,26.5Z" transform="translate(0 0.659)"/><path class="h" d="M19.758,17.857a18.334,18.334,0,0,0-2.816-13.9C14.045-.266,14.153.83,9.637,0,5.029.9-.123,7.652,0,14.4c.21,11.25,7.749,13.725,12.357,14.849,0,0,1.288-1.253,3.064-3.03A16.3,16.3,0,0,0,19.758,17.857Z" transform="translate(17.023 0)"/></g></g><path class="k" d="M45.323,0A45.323,45.323,0,1,1,0,45.323,45.323,45.323,0,0,1,45.323,0Z" transform="translate(226.205 2124.354)"/><path class="l" d="M1070.832,342.3l7.373,14.938,16.485,2.4-11.929,11.628,2.817,16.419-14.746-7.752-14.745,7.752,2.816-16.419-11.929-11.628,16.485-2.4Z" transform="translate(-798.832 1803.367)"/><path class="i" d="M16.033,8.576s8.026.685,9.073,12.2" transform="translate(226.521 2127.569)"/><path class="i" d="M16.033,8.576s8.026.685,9.073,12.2" transform="translate(278.916 2123.109)"/><rect class="a" width="200" height="176" transform="translate(174 2054)"/></g></svg>