<svg xmlns="http://www.w3.org/2000/svg" width="200" height="176" viewBox="0 0 200 176"><defs><style>.a{fill:#e7fae8;}.a,.b{stroke:#1ac91e;stroke-width:4px;}.a,.b,.d{stroke-linecap:round;}.a,.d{stroke-linejoin:round;}.b,.d,.e{fill:none;}.c{fill:#1ac91e;}.d{stroke:#e7fae8;stroke-width:6px;}</style></defs><g transform="translate(-968 -2054)"><g transform="translate(-277.916 479.359) rotate(-11)"><path class="a" d="M-17240.3,5186.264s-21.4-32.682-42.412-34.13-40.391,8.587-40.391,8.587a146.788,146.788,0,0,0,18.748-37.961c6.645-21.294,11.727-12.816,17.254-10.171s13.406-.389,20.232-2.879,5.227-7.248,5.227-7.248l-1.322-6.489-9.111,6.489,9.111-6.489-3.9-8.218s-10.893-5.412-20.232,0c-13.654,7.911-22.937,8.8-49.7,43.246s-30.484,42.744-16.795,52.756,69.467,22.472,102.611,20.3" transform="translate(18286.43 -3253.532)"/><path class="b" d="M-17615.07,5258.594l3.18,7.183" transform="translate(18626.273 -3417.696)"/></g><g transform="translate(1563.871 2378.56) rotate(-176)"><path class="c" d="M34.942,0A34.942,34.942,0,1,1,0,34.942,34.942,34.942,0,0,1,34.942,0Z" transform="translate(429.745 165.457)"/><g transform="translate(468.555 178.672) rotate(39)"><line class="d" x2="7.583" y2="33.967" transform="translate(5.885)"/><path class="d" d="M483.958,214.236l-8.88,13.985-13.985-8.88" transform="translate(-461.093 -191.94)"/></g></g><rect class="e" width="200" height="176" transform="translate(968 2054)"/></g></svg>